<?xml version="1.0" encoding="UTF-8"?><svg version="1.1" viewBox="0 0 128 128" xmlns="http://www.w3.org/2000/svg" xmlns:cc="http://creativecommons.org/ns#" xmlns:dc="http://purl.org/dc/elements/1.1/" xmlns:rdf="http://www.w3.org/1999/02/22-rdf-syntax-ns#"><path d="m28.11 13.609c-2.7387 0-4.9494 2.2106-4.9494 4.9494v90.883c0 2.7387 2.2106 4.9494 4.9494 4.9494h71.809c2.7387 0 4.9204-2.2106 4.9204-4.9494v-90.883c0-2.7387-2.1817-4.9494-4.9204-4.9494zm7.9595 7.3517h55.861c3.0814 0 5.5572 2.5047 5.5572 5.5861v12.648c0 3.0814-2.4758 5.5572-5.5572 5.5572h-55.861c-3.0814 0-5.5282-2.4758-5.5282-5.5572v-12.648c0-3.0814 2.4468-5.5861 5.5282-5.5861zm21.071 9.0015c-2.3244 0-4.1968 1.592-4.1968 3.5601 0 1.9681 1.8724 3.5311 4.1968 3.5311h15.109c2.3244 0 4.1968-1.563 4.1968-3.5311 0-1.9681-1.8724-3.5601-4.1968-3.5601zm-21.071 22.142h55.861c3.0814 0 5.5572 2.5047 5.5572 5.5861v12.648c0 3.0814-2.4758 5.5572-5.5572 5.5572h-55.861c-3.0814 0-5.5282-2.4758-5.5282-5.5572v-12.648c0-3.0814 2.4468-5.5861 5.5282-5.5861zm21.071 9.0015c-2.3244 0-4.1968 1.592-4.1968 3.5601 0 1.9681 1.8724 3.5311 4.1968 3.5311h15.109c2.3244 0 4.1968-1.5631 4.1968-3.5311 0-1.9681-1.8724-3.5601-4.1968-3.5601zm-21.071 22.142h55.861c3.0814 0 5.5572 2.5047 5.5572 5.5861v12.648c0 3.0814-2.4758 5.5572-5.5572 5.5572h-55.861c-3.0814 0-5.5282-2.4758-5.5282-5.5572v-12.648c0-3.0814 2.4468-5.5861 5.5282-5.5861zm21.071 9.0015c-2.3244 0-4.1968 1.592-4.1968 3.5601 0 1.9681 1.8724 3.5311 4.1968 3.5311h15.109c2.3244 0 4.1968-1.563 4.1968-3.5311 0-1.9681-1.8724-3.5601-4.1968-3.5601z"/></svg>

