<?xml version="1.0" encoding="UTF-8"?><svg enable-background="new 0 0 361.875 361.875" version="1.1" viewBox="0 0 361.88 361.88" xml:space="preserve" xmlns="http://www.w3.org/2000/svg"><path d="m336.88 49.448h-311.88c-13.785 0-25 11.215-25 25v212.98c0 13.785 11.215 25 25 25h311.88c13.785 0 25-11.215 25-25v-212.98c0-13.786-11.215-25-25-25zm15 237.98c0 8.271-6.728 15-15 15h-311.88c-8.271 0-15-6.729-15-15v-170.96h341.88v170.96zm0-180.96h-341.88v-32.02c0-8.271 6.729-15 15-15h311.88c8.272 0 15 6.729 15 15v32.02z"/><path d="m38.85 177.49h21.854c5.29 0 9.579-4.289 9.579-9.579v-21.854c0-5.29-4.289-9.579-9.579-9.579h-21.854c-5.29 0-9.579 4.289-9.579 9.579v21.854c0 5.29 4.288 9.579 9.579 9.579z"/><path d="m91.314 177.49h21.854c5.29 0 9.579-4.289 9.579-9.579v-21.854c0-5.29-4.289-9.579-9.579-9.579h-21.854c-5.29 0-9.579 4.289-9.579 9.579v21.854c0 5.29 4.289 9.579 9.579 9.579z"/><path d="m143.78 177.49h21.854c5.29 0 9.579-4.289 9.579-9.579v-21.854c0-5.29-4.289-9.579-9.579-9.579h-21.854c-5.29 0-9.579 4.289-9.579 9.579v21.854c0 5.29 4.288 9.579 9.579 9.579z"/><path d="m196.24 177.49h21.854c5.29 0 9.579-4.289 9.579-9.579v-21.854c0-5.29-4.289-9.579-9.579-9.579h-21.854c-5.29 0-9.579 4.289-9.579 9.579v21.854c0 5.29 4.289 9.579 9.579 9.579z"/><path d="m248.71 177.49h21.854c5.29 0 9.579-4.289 9.579-9.579v-21.854c0-5.29-4.289-9.579-9.579-9.579h-21.854c-5.29 0-9.579 4.289-9.579 9.579v21.854c0 5.29 4.289 9.579 9.579 9.579z"/><path d="m301.17 177.49h21.854c5.29 0 9.579-4.289 9.579-9.579v-21.854c0-5.29-4.288-9.579-9.579-9.579h-21.854c-5.29 0-9.579 4.289-9.579 9.579v21.854c0 5.29 4.289 9.579 9.579 9.579z"/><path d="m98.476 220.37v-21.854c0-5.29-4.289-9.579-9.579-9.579h-21.854c-5.29 0-9.579 4.289-9.579 9.579v21.854c0 5.29 4.288 9.579 9.579 9.579h21.854c5.29 1e-3 9.579-4.288 9.579-9.579z"/><path d="m141.36 229.95c5.29 0 9.579-4.288 9.579-9.579v-21.854c0-5.29-4.289-9.579-9.579-9.579h-21.854c-5.29 0-9.579 4.289-9.579 9.579v21.854c0 5.29 4.289 9.579 9.579 9.579h21.854z"/><path d="m193.83 229.95c5.29 0 9.579-4.288 9.579-9.579v-21.854c0-5.29-4.288-9.579-9.579-9.579h-21.854c-5.29 0-9.579 4.289-9.579 9.579v21.854c0 5.29 4.289 9.579 9.579 9.579h21.854z"/><path d="m246.29 229.95c5.29 0 9.579-4.288 9.579-9.579v-21.854c0-5.29-4.289-9.579-9.579-9.579h-21.854c-5.29 0-9.579 4.289-9.579 9.579v21.854c0 5.29 4.288 9.579 9.579 9.579h21.854z"/><path d="m298.75 229.95c5.29 0 9.579-4.288 9.579-9.579v-21.854c0-5.29-4.289-9.579-9.579-9.579h-21.854c-5.29 0-9.579 4.289-9.579 9.579v21.854c0 5.29 4.289 9.579 9.579 9.579h21.854z"/><path d="m38.85 282.42h21.854c5.29 0 9.579-4.289 9.579-9.579v-21.853c0-5.29-4.289-9.579-9.579-9.579h-21.854c-5.29 0-9.579 4.289-9.579 9.579v21.853c0 5.29 4.288 9.579 9.579 9.579z"/><path d="m323.02 241.41h-21.854c-5.29 0-9.579 4.289-9.579 9.579v21.853c0 5.29 4.289 9.579 9.579 9.579h21.854c5.29 0 9.579-4.289 9.579-9.579v-21.853c0-5.29-4.288-9.579-9.579-9.579z"/><path d="m270.56 241.41h-179.25c-5.29 0-9.579 4.289-9.579 9.579v21.853c0 5.29 4.289 9.579 9.579 9.579h179.25c5.29 0 9.579-4.289 9.579-9.579v-21.853c0-5.29-4.289-9.579-9.579-9.579z"/></svg>
